<svg id="svg" version="1.1" xmlns="http://www.w3.org/2000/svg" xmlns:xlink="http://www.w3.org/1999/xlink" width="400" height="400" viewBox="0, 0, 400,400"><g id="svgg"><path id="path0" d="M248.438 157.068 C 245.042 157.367,242.117 158.090,241.705 158.732 C 241.392 159.220,241.286 223.577,241.597 223.889 C 241.793 224.084,245.738 223.682,247.852 223.251 C 256.831 221.421,271.108 225.127,281.872 232.081 C 283.825 233.343,285.495 234.375,285.584 234.375 C 285.672 234.375,285.744 220.343,285.743 203.193 L 285.742 172.011 284.401 170.283 C 283.192 168.724,281.761 167.392,278.357 164.651 C 272.221 159.712,258.348 156.195,248.438 157.068 M314.466 158.252 C 306.164 159.997,298.481 163.771,293.483 168.558 L 290.625 171.295 290.625 203.073 L 290.625 234.850 291.699 234.584 C 292.290 234.437,294.109 233.462,295.741 232.417 C 307.246 225.052,321.469 221.804,331.445 224.262 C 333.759 224.832,334.798 224.929,335.449 224.634 L 336.328 224.235 336.328 192.048 C 336.328 166.767,336.223 159.778,335.840 159.472 C 333.496 157.606,320.946 156.889,314.466 158.252 M55.954 196.191 L 56.055 223.242 61.133 223.242 L 66.211 223.242 66.406 211.719 L 66.602 200.195 75.167 200.090 C 81.759 200.009,83.806 200.099,84.048 200.480 C 84.221 200.753,84.366 206.030,84.369 212.207 L 84.375 223.438 89.258 223.438 L 94.141 223.438 94.141 196.289 L 94.141 169.141 89.069 169.141 L 83.997 169.141 83.893 179.980 L 83.789 190.820 75.781 190.931 C 67.985 191.039,65.974 190.913,66.064 190.325 C 66.088 190.168,66.087 185.337,66.062 179.590 L 66.016 169.141 60.935 169.141 L 55.854 169.141 55.954 196.191 M98.914 173.925 L 99.023 178.710 105.367 178.739 C 108.857 178.755,111.798 178.856,111.904 178.962 C 112.011 179.068,112.144 189.074,112.201 201.198 L 112.305 223.242 117.285 223.352 L 122.266 223.461 122.266 201.184 L 122.266 178.906 123.926 178.865 C 124.839 178.843,127.695 178.799,130.273 178.768 L 134.961 178.711 135.071 173.926 L 135.180 169.141 116.992 169.141 L 98.804 169.141 98.914 173.925 M140.720 196.183 L 140.820 223.242 145.313 223.242 L 149.805 223.242 149.891 204.330 C 149.976 185.772,150.024 184.332,150.539 184.804 C 150.856 185.095,155.545 202.251,158.590 214.258 L 160.868 223.242 164.516 223.242 L 168.164 223.242 169.064 219.727 C 174.927 196.829,178.223 185.058,178.828 184.857 C 179.178 184.740,179.314 189.371,179.391 203.973 L 179.492 223.242 184.180 223.242 L 188.867 223.242 188.871 196.191 L 188.875 169.141 181.953 169.141 L 175.030 169.141 174.603 170.801 C 174.369 171.714,173.903 173.428,173.570 174.609 C 172.525 178.309,169.596 189.706,167.546 198.047 C 165.103 207.988,165.274 207.422,164.705 207.422 C 164.336 207.422,162.076 199.578,161.492 196.266 C 161.452 196.038,160.868 193.577,160.195 190.797 C 159.523 188.017,158.118 182.051,157.075 177.539 L 155.179 169.336 147.899 169.230 L 140.620 169.123 140.720 196.183 M196.970 196.191 L 197.070 223.242 211.328 223.242 L 225.586 223.242 225.696 218.464 L 225.805 213.686 216.321 213.581 L 206.836 213.477 206.735 191.309 L 206.634 169.141 201.752 169.141 L 196.870 169.141 196.970 196.191 M351.532 174.121 C 351.393 177.240,351.592 183.387,351.840 183.627 C 352.143 183.920,355.330 185.526,361.523 188.504 C 366.468 190.882,371.539 193.827,371.783 194.464 C 372.152 195.425,370.231 196.633,360.742 201.411 C 355.801 203.900,351.696 205.995,351.620 206.068 C 351.497 206.186,351.427 213.169,351.525 215.572 C 351.560 216.437,351.618 216.460,352.441 215.926 C 353.272 215.388,354.367 214.774,359.961 211.719 C 361.250 211.015,363.096 209.998,364.063 209.459 C 365.029 208.921,366.763 207.958,367.914 207.321 C 369.066 206.683,371.439 205.279,373.188 204.201 C 374.936 203.122,376.982 201.894,377.734 201.471 C 378.486 201.049,379.641 200.297,380.300 199.800 L 381.499 198.897 381.519 194.781 C 381.537 191.074,381.457 190.590,380.711 189.903 C 379.970 189.222,372.838 184.766,372.487 184.766 C 372.409 184.766,371.229 184.093,369.864 183.271 C 368.499 182.449,365.664 180.861,363.563 179.742 C 361.462 178.623,357.984 176.746,355.834 175.572 C 351.396 173.148,351.573 173.208,351.532 174.121 M39.258 184.290 C 30.653 189.105,25.147 192.344,22.363 194.227 L 20.703 195.350 20.703 199.177 C 20.703 202.334,20.823 203.108,21.387 203.600 C 22.553 204.617,29.568 208.713,37.314 212.900 C 41.391 215.103,45.382 217.321,46.183 217.828 C 46.984 218.335,47.731 218.750,47.843 218.750 C 47.955 218.750,48.047 216.595,48.047 213.961 L 48.047 209.172 40.723 205.598 C 32.551 201.611,29.688 199.909,29.688 199.040 C 29.688 198.293,32.048 196.929,40.918 192.550 L 48.047 189.030 48.047 184.359 C 48.047 181.790,47.915 179.690,47.754 179.694 C 47.593 179.697,43.770 181.766,39.258 184.290 " stroke="none" fill="#fcfcfc" fill-rule="evenodd"></path><path id="path1" d="M67.188 3.749 C 57.070 5.696,54.402 6.324,52.453 7.216 C 51.253 7.765,50.200 8.143,50.113 8.056 C 50.026 7.969,48.778 8.469,47.341 9.167 C 45.903 9.865,44.331 10.561,43.848 10.713 C 43.364 10.866,42.969 11.154,42.969 11.354 C 42.969 11.555,42.837 11.683,42.676 11.640 C 41.693 11.375,33.690 16.535,29.102 20.393 C 19.116 28.787,10.043 41.321,6.820 51.172 C 6.433 52.354,5.904 53.848,5.644 54.492 C 4.160 58.169,3.393 61.750,2.379 69.727 C 1.428 77.209,1.638 321.775,2.603 330.664 C 2.696 331.523,2.843 332.992,2.929 333.928 C 3.574 340.902,8.267 353.600,12.736 360.463 C 13.895 362.243,14.844 363.850,14.844 364.035 C 14.844 364.219,15.371 364.935,16.016 365.625 C 16.660 366.315,17.187 366.974,17.187 367.089 C 17.187 368.841,32.097 382.611,37.305 385.669 C 50.668 393.516,60.532 396.154,78.906 396.792 C 100.069 397.528,329.250 397.038,333.594 396.248 C 334.990 395.994,337.891 395.480,340.039 395.105 C 342.188 394.730,344.385 394.245,344.922 394.026 C 345.459 393.807,346.326 393.557,346.849 393.471 C 347.372 393.384,348.549 392.972,349.465 392.555 C 350.380 392.138,351.332 391.797,351.580 391.797 C 351.828 391.797,352.584 391.543,353.261 391.233 C 353.938 390.923,355.986 389.984,357.813 389.148 C 367.198 384.849,376.692 377.047,385.352 366.518 C 385.566 366.256,385.976 365.765,386.262 365.426 C 389.107 362.050,395.155 350.018,396.307 345.441 C 396.405 345.048,396.850 343.408,397.295 341.797 C 398.352 337.967,398.271 338.285,398.594 336.719 C 399.734 331.204,399.805 323.017,399.795 198.242 C 399.787 88.591,399.687 70.711,399.062 67.366 C 398.984 66.946,398.778 65.635,398.604 64.453 C 398.431 63.271,398.264 62.217,398.234 62.109 C 398.203 62.002,398.050 61.387,397.894 60.742 C 397.737 60.098,397.432 59.246,397.215 58.849 C 396.998 58.452,396.911 58.037,397.021 57.927 C 397.131 57.817,396.864 56.824,396.429 55.719 C 395.994 54.615,395.664 53.664,395.696 53.606 C 395.886 53.263,394.442 49.219,394.130 49.219 C 393.921 49.219,393.778 49.087,393.812 48.926 C 393.942 48.312,391.376 42.620,390.590 41.780 C 390.287 41.456,389.600 40.325,389.064 39.267 C 386.178 33.572,375.320 22.016,368.031 16.882 C 362.620 13.072,357.940 10.488,354.111 9.198 C 353.042 8.838,351.985 8.392,351.763 8.207 C 350.428 7.100,341.669 4.888,335.352 4.062 C 334.707 3.978,333.477 3.796,332.617 3.658 C 328.965 3.069,70.259 3.158,67.188 3.749 M257.472 156.643 C 267.910 157.839,276.920 161.939,283.301 168.396 L 286.328 171.459 286.328 203.308 C 286.328 223.862,286.192 235.156,285.945 235.156 C 285.734 235.156,284.253 234.277,282.654 233.203 C 271.380 225.629,259.069 222.380,247.613 223.957 C 244.951 224.323,242.378 224.620,241.895 224.616 L 241.016 224.609 241.016 191.420 C 241.016 159.042,241.034 158.221,241.769 157.827 C 244.163 156.546,251.681 155.979,257.472 156.643 M331.739 157.622 C 333.190 157.919,334.860 158.393,335.450 158.676 L 336.523 159.190 336.623 191.973 C 336.702 217.941,336.621 224.821,336.233 225.067 C 335.488 225.540,333.871 225.453,331.382 224.805 C 322.045 222.373,307.193 225.778,295.920 232.937 C 293.809 234.277,291.991 235.156,291.330 235.156 L 290.234 235.156 290.234 203.155 L 290.234 171.154 291.304 169.883 C 299.261 160.426,317.867 154.785,331.739 157.622 M66.309 168.871 C 66.679 169.111,66.797 171.720,66.797 179.711 L 66.797 190.234 75.195 190.234 L 83.594 190.234 83.594 179.492 C 83.594 170.226,83.674 168.743,84.180 168.701 C 85.915 168.557,93.626 168.534,94.043 168.672 C 94.427 168.799,94.531 174.680,94.531 196.331 L 94.531 223.828 89.068 223.828 L 83.605 223.828 83.502 212.207 L 83.398 200.586 75.195 200.586 L 66.992 200.586 66.889 212.207 L 66.785 223.828 61.127 223.828 L 55.469 223.828 55.469 196.322 C 55.469 175.441,55.580 168.778,55.932 168.661 C 56.802 168.371,65.818 168.553,66.309 168.871 M135.070 168.695 C 135.454 168.737,135.544 169.948,135.461 173.926 L 135.352 179.102 129.202 179.209 L 123.053 179.317 122.952 201.475 L 122.852 223.633 117.383 223.633 L 111.914 223.633 111.813 201.465 L 111.712 179.297 105.075 179.297 L 98.438 179.297 98.438 174.089 C 98.438 171.224,98.516 168.802,98.612 168.706 C 98.762 168.556,133.707 168.545,135.070 168.695 M155.403 168.947 C 155.601 169.161,156.920 174.346,158.334 180.469 C 162.089 196.728,164.535 206.689,164.726 206.498 C 164.818 206.405,166.105 201.522,167.586 195.646 C 171.843 178.753,174.498 169.061,174.943 168.785 C 175.266 168.585,187.942 168.513,189.160 168.704 C 189.321 168.729,189.453 181.143,189.453 196.289 L 189.453 223.828 184.180 223.828 L 178.906 223.828 178.906 204.818 C 178.906 194.362,178.814 185.899,178.701 186.012 C 178.357 186.357,172.839 206.853,170.121 217.884 L 168.650 223.854 164.522 223.743 L 160.394 223.633 158.360 215.590 C 155.677 204.983,150.759 186.567,150.553 186.361 C 150.464 186.271,150.391 194.670,150.391 205.025 L 150.391 223.851 145.410 223.742 L 140.430 223.633 140.329 196.528 C 140.264 178.985,140.366 169.257,140.617 168.954 C 141.108 168.364,154.856 168.357,155.403 168.947 M207.126 190.918 L 207.227 213.086 216.699 213.191 L 226.172 213.295 226.172 218.562 L 226.172 223.828 211.328 223.828 L 196.484 223.828 196.484 196.289 L 196.484 168.750 201.755 168.750 L 207.025 168.750 207.126 190.918 M361.719 177.933 C 375.647 185.555,381.729 189.275,382.180 190.448 C 382.891 192.302,382.429 198.857,381.523 199.762 C 379.853 201.433,352.455 217.188,351.220 217.188 C 350.437 217.188,349.934 207.894,350.621 206.103 C 350.748 205.773,355.099 203.384,360.289 200.796 C 370.968 195.471,371.417 195.196,370.748 194.390 C 370.494 194.084,366.030 191.685,360.827 189.057 C 355.624 186.430,351.131 184.091,350.842 183.859 C 350.258 183.390,350.309 173.669,350.901 172.755 C 351.274 172.180,350.715 171.912,361.719 177.933 M48.438 184.181 L 48.438 189.455 40.137 193.566 C 32.212 197.490,29.667 198.953,30.084 199.342 C 30.775 199.988,37.871 203.758,42.692 206.041 L 48.438 208.762 48.438 213.951 C 48.438 217.463,48.299 219.141,48.008 219.141 C 47.162 219.141,24.633 206.513,21.374 204.212 L 20.288 203.445 20.398 199.096 L 20.508 194.747 25.195 191.833 C 30.002 188.845,47.618 178.927,48.145 178.914 C 48.306 178.910,48.438 181.280,48.438 184.181 " stroke="none" fill="#578cdc" fill-rule="evenodd"></path><path id="path2" d="M0.000 200.000 L 0.000 400.000 200.000 400.000 L 400.000 400.000 399.937 361.035 C 399.902 339.604,399.753 324.619,399.605 327.734 C 399.390 332.285,398.920 335.897,398.235 338.281 C 398.204 338.389,398.046 339.004,397.884 339.648 C 395.466 349.252,390.098 361.142,386.241 365.434 C 385.966 365.739,385.566 366.216,385.352 366.494 C 378.187 375.765,367.078 384.903,357.813 389.148 C 355.986 389.984,353.938 390.923,353.261 391.233 C 352.584 391.543,351.828 391.797,351.580 391.797 C 351.332 391.797,350.380 392.138,349.465 392.555 C 348.549 392.972,347.372 393.384,346.849 393.471 C 346.326 393.557,345.459 393.807,344.922 394.026 C 344.385 394.245,342.188 394.730,340.039 395.105 C 337.891 395.480,334.990 395.994,333.594 396.248 C 329.250 397.038,100.069 397.528,78.906 396.792 C 60.532 396.154,50.668 393.516,37.305 385.669 C 32.097 382.611,17.187 368.841,17.187 367.089 C 17.188 366.974,16.660 366.315,16.016 365.625 C 15.371 364.935,14.844 364.219,14.844 364.035 C 14.844 363.850,13.895 362.243,12.736 360.463 C 7.265 352.061,3.007 339.189,2.360 329.102 C 1.791 320.213,1.566 91.765,2.110 75.000 C 2.334 68.101,2.899 63.399,3.948 59.702 C 4.212 58.770,4.471 57.832,4.522 57.617 C 6.856 47.921,14.526 34.867,23.199 25.834 C 28.669 20.137,40.962 11.178,42.676 11.640 C 42.837 11.683,42.969 11.555,42.969 11.354 C 42.969 11.154,43.364 10.866,43.848 10.713 C 44.331 10.561,45.903 9.865,47.341 9.167 C 48.778 8.469,50.036 7.978,50.135 8.078 C 50.234 8.177,51.030 7.893,51.903 7.447 C 54.006 6.374,56.589 5.727,64.483 4.291 L 71.059 3.096 201.057 3.251 C 272.556 3.336,331.758 3.519,332.617 3.658 C 333.477 3.796,334.707 3.978,335.352 4.062 C 341.669 4.888,350.428 7.100,351.763 8.207 C 351.985 8.392,353.042 8.838,354.111 9.198 C 365.477 13.027,383.722 28.723,389.064 39.267 C 389.600 40.325,390.287 41.456,390.590 41.780 C 390.894 42.104,391.656 43.515,392.285 44.915 C 392.914 46.315,393.747 48.076,394.136 48.828 C 394.846 50.200,396.863 56.480,397.649 59.766 C 397.880 60.732,398.163 61.875,398.277 62.305 C 398.506 63.165,399.496 70.378,399.724 72.852 C 399.804 73.711,399.898 57.671,399.934 37.207 L 400.000 0.000 200.000 0.000 L 0.000 0.000 0.000 200.000 " stroke="none" fill="#939394" fill-rule="evenodd"></path><path id="path3" d="M250.098 156.537 C 251.118 156.618,252.788 156.618,253.809 156.537 C 254.829 156.457,253.994 156.391,251.953 156.391 C 249.912 156.391,249.077 156.457,250.098 156.537 M327.832 157.301 C 328.208 157.399,328.823 157.399,329.199 157.301 C 329.575 157.202,329.268 157.122,328.516 157.122 C 327.764 157.122,327.456 157.202,327.832 157.301 M301.465 162.136 C 300.659 162.561,300.000 162.997,300.000 163.103 C 300.000 163.277,303.085 161.835,303.483 161.475 C 303.933 161.069,302.759 161.453,301.465 162.136 M282.813 168.164 C 283.979 169.346,285.022 170.313,285.130 170.313 C 285.237 170.313,284.370 169.346,283.203 168.164 C 282.036 166.982,280.993 166.016,280.886 166.016 C 280.779 166.016,281.646 166.982,282.813 168.164 M292.188 168.945 C 291.239 169.912,290.550 170.703,290.658 170.703 C 290.765 170.703,291.629 169.912,292.578 168.945 C 293.527 167.979,294.215 167.188,294.108 167.188 C 294.001 167.188,293.136 167.979,292.188 168.945 M135.241 173.708 L 135.156 178.861 133.496 179.011 L 131.836 179.160 133.508 179.229 C 135.614 179.315,135.600 179.357,135.449 173.416 L 135.325 168.555 135.241 173.708 M66.592 179.785 L 66.602 190.430 75.000 190.442 L 83.398 190.454 75.104 190.337 L 66.809 190.219 66.696 179.680 L 66.582 169.140 66.592 179.785 M140.419 196.289 C 140.419 211.328,140.468 217.424,140.527 209.835 C 140.587 202.246,140.586 189.941,140.527 182.491 C 140.468 175.041,140.419 181.250,140.419 196.289 M55.653 197.461 C 55.653 212.070,55.702 217.990,55.762 210.616 C 55.821 203.242,55.821 191.289,55.762 184.054 C 55.702 176.818,55.653 182.852,55.653 197.461 M352.734 173.226 C 352.734 173.334,353.438 173.780,354.297 174.219 C 355.156 174.657,355.859 174.928,355.859 174.821 C 355.859 174.713,355.156 174.267,354.297 173.828 C 353.438 173.390,352.734 173.119,352.734 173.226 M350.475 178.748 C 350.391 183.469,350.746 184.766,352.125 184.766 C 352.293 184.766,352.061 184.458,351.610 184.082 C 350.873 183.469,350.777 182.918,350.674 178.711 L 350.559 174.023 350.475 178.748 M356.250 175.179 C 356.250 175.287,356.953 175.733,357.813 176.172 C 358.672 176.610,359.375 176.881,359.375 176.774 C 359.375 176.666,358.672 176.220,357.813 175.781 C 356.953 175.343,356.250 175.072,356.250 175.179 M360.547 177.526 C 360.547 177.633,361.426 178.167,362.500 178.711 C 363.574 179.255,364.453 179.613,364.453 179.505 C 364.453 179.398,363.574 178.865,362.500 178.320 C 361.426 177.776,360.547 177.418,360.547 177.526 M111.719 201.289 L 111.914 223.633 112.015 201.585 C 112.070 189.459,111.983 179.404,111.820 179.241 C 111.657 179.078,111.611 189.000,111.719 201.289 M122.841 179.395 C 122.530 180.231,122.444 223.764,122.754 223.573 C 122.915 223.473,123.047 213.481,123.047 201.369 L 123.047 179.346 124.316 179.189 L 125.586 179.031 124.304 178.969 C 123.585 178.934,122.943 179.120,122.841 179.395 M45.996 179.911 C 44.536 180.703,44.625 181.033,46.094 180.273 C 46.738 179.940,47.266 179.584,47.266 179.482 C 47.266 179.231,47.224 179.245,45.996 179.911 M364.844 179.870 C 364.844 179.977,365.723 180.510,366.797 181.055 C 367.871 181.599,368.750 181.957,368.750 181.849 C 368.750 181.742,367.871 181.208,366.797 180.664 C 365.723 180.120,364.844 179.762,364.844 179.870 M371.094 183.378 C 371.094 183.486,371.621 183.846,372.266 184.180 C 372.910 184.513,373.438 184.698,373.438 184.590 C 373.438 184.483,372.910 184.122,372.266 183.789 C 371.621 183.456,371.094 183.271,371.094 183.378 M178.811 199.353 C 178.865 207.121,178.959 215.850,179.018 218.750 C 179.077 221.650,179.164 215.377,179.211 204.808 C 179.258 194.240,179.165 185.511,179.004 185.412 C 178.843 185.312,178.756 191.586,178.811 199.353 M375.977 186.221 C 376.191 186.426,377.070 186.989,377.930 187.471 C 378.789 187.954,379.141 188.056,378.711 187.699 C 377.838 186.974,375.364 185.636,375.977 186.221 M355.892 186.461 C 355.981 186.535,359.219 188.205,363.086 190.172 C 366.953 192.140,369.788 193.495,369.385 193.183 C 367.981 192.096,354.684 185.472,355.892 186.461 M382.177 194.727 C 382.178 197.090,382.243 198.006,382.320 196.763 C 382.398 195.520,382.397 193.586,382.319 192.466 C 382.240 191.346,382.176 192.363,382.177 194.727 M41.406 192.578 C 40.225 193.202,39.434 193.713,39.648 193.713 C 39.863 193.713,41.006 193.202,42.188 192.578 C 43.369 191.954,44.160 191.443,43.945 191.443 C 43.730 191.443,42.588 191.954,41.406 192.578 M367.871 196.902 C 367.065 197.327,366.406 197.762,366.406 197.869 C 366.406 197.975,367.109 197.704,367.969 197.266 C 368.828 196.827,369.531 196.384,369.531 196.281 C 369.531 196.026,369.529 196.027,367.871 196.902 M361.719 200.195 C 359.463 201.355,357.752 202.313,357.917 202.324 C 358.332 202.351,366.016 198.476,366.016 198.239 C 366.016 197.972,366.255 197.864,361.719 200.195 M286.036 200.195 C 286.040 201.055,286.120 201.360,286.214 200.874 C 286.307 200.388,286.304 199.685,286.206 199.312 C 286.108 198.938,286.032 199.336,286.036 200.195 M379.968 200.555 C 377.662 202.151,377.114 202.710,378.815 201.731 C 380.127 200.975,382.379 199.241,382.031 199.254 C 381.924 199.258,380.995 199.844,379.968 200.555 M83.593 212.226 L 83.788 224.023 83.892 212.526 C 83.950 206.202,83.862 200.893,83.697 200.728 C 83.533 200.564,83.486 205.738,83.593 212.226 M355.762 202.958 C 354.247 203.779,354.419 204.063,355.957 203.281 C 357.430 202.532,357.690 202.338,357.194 202.359 C 356.997 202.368,356.353 202.637,355.762 202.958 M286.071 206.445 C 286.073 208.164,286.142 208.819,286.224 207.900 C 286.307 206.981,286.305 205.575,286.221 204.775 C 286.138 203.975,286.070 204.727,286.071 206.445 M352.539 204.550 C 350.520 205.604,350.390 206.015,350.397 211.305 C 350.404 217.040,350.574 217.530,352.316 216.808 C 352.985 216.531,353.636 216.137,353.762 215.932 C 353.889 215.728,353.440 215.846,352.766 216.195 C 350.923 217.148,350.781 216.804,350.787 211.403 C 350.794 205.837,350.779 205.884,352.930 204.758 C 353.789 204.309,354.316 203.940,354.102 203.939 C 353.887 203.938,353.184 204.213,352.539 204.550 M372.168 205.302 C 370.708 206.094,370.797 206.424,372.266 205.664 C 372.910 205.331,373.438 204.975,373.438 204.873 C 373.438 204.621,373.396 204.636,372.168 205.302 M164.183 205.978 C 164.270 206.797,164.956 206.940,165.157 206.182 C 165.260 205.790,165.201 205.797,164.913 206.209 C 164.602 206.654,164.493 206.619,164.320 206.014 C 164.139 205.382,164.118 205.377,164.183 205.978 M367.274 208.170 C 363.182 210.547,362.581 211.147,366.305 209.141 C 368.874 207.756,371.193 206.248,370.703 206.280 C 370.596 206.287,369.053 207.138,367.274 208.170 M286.049 211.523 C 286.052 212.598,286.128 212.991,286.218 212.397 C 286.308 211.803,286.305 210.924,286.212 210.444 C 286.120 209.963,286.046 210.449,286.049 211.523 M361.230 211.549 C 360.210 212.080,359.375 212.602,359.375 212.709 C 359.375 212.816,360.254 212.458,361.328 211.914 C 362.402 211.370,363.281 210.839,363.281 210.736 C 363.281 210.477,363.316 210.463,361.230 211.549 M356.543 214.089 C 355.737 214.514,355.078 214.950,355.078 215.056 C 355.078 215.163,355.781 214.892,356.641 214.453 C 357.500 214.015,358.203 213.572,358.203 213.469 C 358.203 213.213,358.200 213.214,356.543 214.089 M286.036 215.039 C 286.040 215.898,286.120 216.204,286.214 215.718 C 286.307 215.232,286.304 214.529,286.206 214.156 C 286.108 213.782,286.032 214.180,286.036 215.039 M286.089 221.680 C 286.090 224.473,286.152 225.564,286.228 224.105 C 286.303 222.646,286.302 220.361,286.226 219.027 C 286.150 217.693,286.089 218.887,286.089 221.680 M44.531 217.363 C 44.531 217.470,45.059 217.831,45.703 218.164 C 46.348 218.497,46.875 218.682,46.875 218.575 C 46.875 218.467,46.348 218.107,45.703 217.773 C 45.059 217.440,44.531 217.255,44.531 217.363 M248.145 223.707 C 248.521 223.805,249.136 223.805,249.512 223.707 C 249.888 223.609,249.580 223.528,248.828 223.528 C 248.076 223.528,247.769 223.609,248.145 223.707 M256.738 223.707 C 257.114 223.805,257.729 223.805,258.105 223.707 C 258.481 223.609,258.174 223.528,257.422 223.528 C 256.670 223.528,256.362 223.609,256.738 223.707 M322.754 224.115 C 323.774 224.196,325.444 224.196,326.465 224.115 C 327.485 224.035,326.650 223.969,324.609 223.969 C 322.568 223.969,321.733 224.035,322.754 224.115 M241.900 224.499 C 242.494 224.589,243.373 224.586,243.853 224.494 C 244.333 224.401,243.848 224.328,242.773 224.330 C 241.699 224.333,241.306 224.409,241.900 224.499 M286.049 229.492 C 286.052 230.566,286.128 230.959,286.218 230.366 C 286.308 229.772,286.305 228.893,286.212 228.413 C 286.120 227.932,286.046 228.418,286.049 229.492 M285.938 233.245 C 285.938 234.534,285.819 234.804,285.331 234.617 C 284.984 234.483,284.827 234.549,284.964 234.770 C 285.612 235.819,286.328 235.098,286.328 233.398 C 286.328 232.432,286.240 231.641,286.133 231.641 C 286.025 231.641,285.938 232.363,285.938 233.245 " stroke="none" fill="#94b4e4" fill-rule="evenodd"></path><path id="path4" d="M248.145 156.920 C 248.735 157.010,249.702 157.010,250.293 156.920 C 250.884 156.831,250.400 156.758,249.219 156.758 C 248.037 156.758,247.554 156.831,248.145 156.920 M253.939 156.792 C 254.028 156.875,255.508 157.039,257.227 157.156 C 259.520 157.312,259.936 157.278,258.789 157.027 C 257.218 156.684,253.635 156.510,253.939 156.792 M321.387 157.319 C 322.515 157.398,324.360 157.398,325.488 157.319 C 326.616 157.240,325.693 157.176,323.438 157.176 C 321.182 157.176,320.259 157.240,321.387 157.319 M242.578 157.693 C 240.998 158.258,241.016 157.871,241.016 191.676 C 241.016 209.575,241.147 224.219,241.309 224.219 C 241.470 224.219,241.553 209.761,241.493 192.090 C 241.371 156.139,241.253 158.425,243.259 157.892 C 244.066 157.678,244.375 157.498,243.945 157.493 C 243.516 157.488,242.900 157.578,242.578 157.693 M330.664 157.988 C 331.953 158.257,333.535 158.616,334.180 158.786 C 334.824 158.955,335.228 158.960,335.077 158.797 C 334.703 158.392,330.506 157.426,329.297 157.466 C 328.760 157.484,329.375 157.719,330.664 157.988 M265.430 158.806 C 267.148 159.324,268.730 159.734,268.945 159.717 C 269.624 159.666,263.905 157.852,263.086 157.859 C 262.656 157.863,263.711 158.289,265.430 158.806 M311.523 158.594 C 310.528 159.021,311.555 159.021,312.891 158.594 C 313.676 158.342,313.714 158.279,313.086 158.270 C 312.656 158.263,311.953 158.409,311.523 158.594 M306.517 160.210 C 304.837 160.868,303.524 161.467,303.598 161.541 C 303.673 161.615,305.310 161.076,307.238 160.343 C 309.165 159.610,310.479 159.011,310.156 159.012 C 309.834 159.013,308.196 159.552,306.517 160.210 M335.859 159.453 C 336.216 159.810,336.328 167.591,336.328 192.089 L 336.328 224.256 335.059 224.808 C 333.627 225.430,334.172 225.597,335.717 225.010 L 336.719 224.629 336.719 192.424 C 336.719 160.742,336.671 158.984,335.818 158.984 C 335.532 158.984,335.546 159.140,335.859 159.453 M270.313 160.352 C 270.850 160.659,271.465 160.910,271.680 160.910 C 271.895 160.910,271.631 160.659,271.094 160.352 C 270.557 160.045,269.941 159.793,269.727 159.793 C 269.512 159.793,269.775 160.045,270.313 160.352 M273.610 161.926 C 274.027 162.242,274.554 162.494,274.782 162.488 C 275.009 162.481,274.854 162.217,274.437 161.902 C 274.020 161.586,273.493 161.334,273.265 161.341 C 273.038 161.347,273.193 161.611,273.610 161.926 M275.391 162.647 C 275.391 162.738,276.016 163.183,276.781 163.634 C 277.546 164.085,278.062 164.277,277.928 164.060 C 277.667 163.637,275.391 162.369,275.391 162.647 M298.155 164.414 C 296.858 165.252,295.687 166.116,295.552 166.334 C 295.356 166.653,300.149 163.619,300.749 163.046 C 301.312 162.508,300.183 163.103,298.155 164.414 M278.516 164.817 C 278.516 165.047,278.695 165.234,278.915 165.234 C 279.135 165.234,280.145 165.976,281.161 166.883 C 282.540 168.114,282.711 168.204,281.836 167.238 C 280.366 165.615,278.516 164.266,278.516 164.817 M292.440 169.114 L 290.230 171.431 290.330 203.196 C 290.445 239.777,289.991 236.510,294.544 233.540 C 295.933 232.633,298.828 230.959,300.977 229.821 C 303.125 228.683,304.737 227.747,304.558 227.743 C 303.956 227.727,298.806 230.455,295.779 232.393 C 294.126 233.451,292.290 234.437,291.699 234.584 L 290.625 234.850 290.625 203.138 L 290.625 171.426 292.833 169.112 C 294.047 167.839,294.953 166.797,294.845 166.797 C 294.738 166.797,293.656 167.840,292.440 169.114 M55.619 169.313 C 55.500 169.623,55.485 170.194,55.586 170.583 C 55.705 171.045,55.784 170.918,55.814 170.215 L 55.859 169.141 60.931 169.141 L 66.003 169.141 66.114 179.590 L 66.224 190.039 66.315 179.395 L 66.406 168.750 61.121 168.750 C 56.878 168.750,55.792 168.861,55.619 169.313 M83.783 169.227 C 83.681 169.502,83.552 174.385,83.498 180.078 L 83.398 190.430 74.734 190.430 C 69.968 190.430,66.311 190.565,66.607 190.730 C 66.904 190.896,70.891 190.984,75.468 190.926 L 83.789 190.820 83.893 179.980 L 83.997 169.141 89.069 169.141 L 94.141 169.141 94.141 196.289 L 94.141 223.438 89.258 223.438 L 84.375 223.438 84.369 212.207 C 84.366 206.030,84.221 200.753,84.048 200.480 C 83.806 200.099,81.759 200.009,75.167 200.090 L 66.602 200.195 66.406 211.719 L 66.211 223.242 61.035 223.242 C 58.188 223.242,55.859 223.379,55.859 223.546 C 55.859 223.713,58.276 223.801,61.230 223.741 L 66.602 223.633 66.705 212.004 L 66.809 200.375 75.299 200.481 L 83.789 200.586 83.893 212.218 L 83.996 223.851 89.166 223.742 L 94.336 223.633 94.336 196.289 L 94.336 168.945 89.152 168.836 C 85.219 168.754,83.924 168.848,83.783 169.227 M98.698 169.010 C 98.337 169.371,98.368 178.906,98.730 178.907 C 98.892 178.907,98.969 176.712,98.904 174.028 L 98.784 169.148 117.068 169.043 L 135.352 168.937 117.155 168.844 C 107.147 168.792,98.841 168.867,98.698 169.010 M142.969 169.018 C 149.185 169.299,155.470 169.311,155.469 169.043 C 155.469 168.882,152.085 168.784,147.949 168.827 C 143.813 168.869,141.572 168.955,142.969 169.018 M174.794 169.158 C 174.649 169.392,174.637 169.689,174.766 169.818 C 174.895 169.947,175.000 169.847,175.000 169.596 C 175.000 169.266,176.940 169.141,182.054 169.141 C 186.658 169.141,189.025 169.276,188.867 169.531 C 188.734 169.746,188.827 169.922,189.072 169.922 C 189.317 169.922,189.445 169.702,189.356 169.434 C 189.139 168.782,175.190 168.518,174.794 169.158 M196.756 168.999 C 196.423 169.332,196.390 222.345,196.721 223.210 C 196.976 223.875,225.510 224.192,225.916 223.535 C 226.016 223.374,219.567 223.242,211.584 223.242 L 197.070 223.242 196.970 196.191 L 196.870 169.141 201.752 169.141 L 206.634 169.141 206.735 191.309 L 206.836 213.477 216.467 213.672 C 221.764 213.779,226.017 213.735,225.917 213.574 C 225.817 213.413,221.528 213.281,216.386 213.281 L 207.038 213.281 206.937 191.113 L 206.836 168.945 201.932 168.837 C 199.234 168.777,196.905 168.850,196.756 168.999 M284.372 170.215 C 285.090 171.128,285.742 171.875,285.821 171.875 C 286.171 171.875,285.132 170.421,284.147 169.531 C 283.198 168.674,283.226 168.758,284.372 170.215 M155.547 170.508 C 155.547 170.938,155.687 171.729,155.859 172.266 C 156.107 173.039,156.172 173.080,156.172 172.461 C 156.172 172.031,156.031 171.240,155.859 170.703 C 155.612 169.930,155.547 169.889,155.547 170.508 M350.952 173.165 C 350.845 173.445,350.806 175.950,350.867 178.732 L 350.977 183.789 359.981 188.281 C 369.542 193.051,371.563 194.264,371.261 195.049 C 371.017 195.685,363.768 199.641,356.852 202.913 C 353.853 204.331,351.263 205.707,351.096 205.969 C 350.638 206.690,350.712 216.317,351.178 216.605 C 351.808 216.995,373.714 204.824,379.785 200.711 L 382.031 199.190 382.031 194.773 C 382.031 189.723,382.256 190.124,377.930 187.477 C 373.230 184.603,351.781 172.656,351.321 172.656 C 351.225 172.656,351.059 172.885,350.952 173.165 M173.270 174.442 C 173.126 175.014,173.084 175.558,173.176 175.650 C 173.268 175.742,173.461 175.349,173.605 174.777 C 173.749 174.204,173.791 173.661,173.699 173.569 C 173.607 173.476,173.414 173.869,173.270 174.442 M355.834 175.572 C 357.984 176.746,361.462 178.623,363.563 179.742 C 365.664 180.861,368.499 182.449,369.864 183.271 C 371.229 184.093,372.409 184.766,372.487 184.766 C 372.838 184.766,379.970 189.222,380.711 189.903 C 381.457 190.590,381.537 191.074,381.519 194.781 L 381.499 198.897 380.300 199.800 C 379.641 200.297,378.486 201.049,377.734 201.471 C 376.982 201.894,374.936 203.122,373.188 204.201 C 371.439 205.279,369.066 206.683,367.914 207.321 C 366.763 207.958,365.029 208.921,364.063 209.459 C 363.096 209.998,361.250 211.015,359.961 211.719 C 354.367 214.774,353.272 215.388,352.441 215.926 C 351.618 216.460,351.560 216.437,351.525 215.572 C 351.427 213.169,351.497 206.186,351.620 206.068 C 351.696 205.995,355.801 203.900,360.742 201.411 C 370.231 196.633,372.152 195.425,371.783 194.464 C 371.539 193.827,366.468 190.882,361.523 188.504 C 355.330 185.526,352.143 183.920,351.840 183.627 C 351.592 183.387,351.393 177.240,351.532 174.121 C 351.573 173.208,351.396 173.148,355.834 175.572 M156.316 174.219 C 156.336 175.234,156.951 176.901,156.965 175.977 C 156.971 175.547,156.825 174.844,156.641 174.414 C 156.435 173.935,156.309 173.860,156.316 174.219 M172.098 178.739 C 171.955 179.311,171.912 179.855,172.004 179.947 C 172.096 180.039,172.289 179.646,172.433 179.074 C 172.577 178.501,172.619 177.957,172.527 177.865 C 172.435 177.773,172.242 178.166,172.098 178.739 M122.266 201.194 L 122.266 223.481 117.187 223.362 C 114.393 223.296,112.108 223.379,112.109 223.546 C 112.109 223.714,114.438 223.802,117.285 223.742 L 122.461 223.633 122.656 201.269 C 122.764 188.970,122.720 178.906,122.559 178.906 C 122.397 178.906,122.266 188.936,122.266 201.194 M47.073 179.683 C 46.936 179.904,47.093 179.970,47.441 179.837 C 47.968 179.634,48.047 180.222,48.047 184.355 L 48.047 189.106 45.873 190.101 C 44.678 190.648,43.787 191.183,43.894 191.290 C 44.001 191.397,45.023 190.983,46.165 190.371 L 48.242 189.258 48.352 184.277 C 48.458 179.416,48.079 178.055,47.073 179.683 M157.890 180.664 C 157.890 181.094,158.031 181.885,158.203 182.422 C 158.451 183.195,158.516 183.236,158.516 182.617 C 158.516 182.188,158.375 181.396,158.203 180.859 C 157.955 180.086,157.890 180.045,157.890 180.664 M171.338 181.689 C 171.012 183.318,171.328 183.633,171.680 182.031 C 171.828 181.356,171.868 180.722,171.768 180.623 C 171.669 180.523,171.475 181.003,171.338 181.689 M43.652 181.473 C 42.192 182.266,42.281 182.596,43.750 181.836 C 44.395 181.503,44.922 181.147,44.922 181.045 C 44.922 180.793,44.880 180.807,43.652 181.473 M36.914 185.195 C 34.551 186.503,32.441 187.761,32.227 187.991 C 32.012 188.221,32.627 187.965,33.594 187.421 C 34.561 186.878,36.714 185.690,38.379 184.783 C 40.936 183.389,41.811 182.801,41.309 182.815 C 41.255 182.817,39.277 183.888,36.914 185.195 M149.842 185.395 C 149.669 185.845,149.768 185.960,150.191 185.798 C 150.569 185.653,150.781 185.801,150.781 186.210 C 150.781 186.562,150.885 186.745,151.012 186.618 C 151.321 186.310,150.815 184.766,150.406 184.766 C 150.229 184.766,149.975 185.049,149.842 185.395 M178.260 185.368 C 178.133 185.700,178.138 186.081,178.272 186.215 C 178.406 186.349,178.516 186.155,178.516 185.784 C 178.516 185.413,178.691 185.219,178.906 185.352 C 179.121 185.484,179.297 185.407,179.297 185.179 C 179.297 184.546,178.521 184.688,178.260 185.368 M159.051 185.938 C 159.071 186.952,159.686 188.620,159.699 187.695 C 159.706 187.266,159.560 186.563,159.375 186.133 C 159.169 185.654,159.044 185.579,159.051 185.938 M176.986 189.681 C 176.734 190.682,176.601 191.575,176.690 191.664 C 176.780 191.754,177.059 191.008,177.311 190.007 C 177.563 189.005,177.696 188.113,177.607 188.023 C 177.517 187.934,177.238 188.680,176.986 189.681 M28.125 190.270 C 26.299 191.362,24.629 192.449,24.414 192.684 C 24.199 192.920,24.463 192.846,25.000 192.520 C 25.537 192.194,27.251 191.175,28.809 190.255 C 31.234 188.823,31.988 188.279,31.543 188.282 C 31.489 188.282,29.951 189.177,28.125 190.270 M169.364 189.286 C 169.220 189.858,169.178 190.402,169.270 190.494 C 169.362 190.586,169.555 190.193,169.699 189.621 C 169.842 189.048,169.885 188.504,169.792 188.412 C 169.700 188.320,169.508 188.713,169.364 189.286 M160.613 192.383 C 160.607 192.813,160.753 193.516,160.938 193.945 C 161.365 194.941,161.365 193.914,160.938 192.578 C 160.686 191.793,160.622 191.755,160.613 192.383 M176.004 193.192 C 175.861 193.764,175.819 194.308,175.911 194.400 C 176.003 194.492,176.196 194.099,176.339 193.527 C 176.483 192.954,176.525 192.411,176.433 192.319 C 176.341 192.226,176.148 192.619,176.004 193.192 M37.793 193.970 C 36.343 194.714,35.156 195.411,35.156 195.518 C 35.156 195.693,40.586 193.092,40.983 192.728 C 41.517 192.237,40.076 192.798,37.793 193.970 M21.934 194.143 L 20.313 195.317 20.313 199.161 C 20.313 202.665,20.390 203.069,21.191 203.748 C 22.069 204.491,22.070 204.491,21.387 203.680 C 20.839 203.029,20.703 202.119,20.703 199.096 L 20.703 195.324 22.266 194.290 C 23.669 193.361,24.092 192.969,23.691 192.969 C 23.616 192.969,22.825 193.497,21.934 194.143 M152.789 193.359 C 152.789 193.682,152.940 194.297,153.125 194.727 C 153.337 195.219,153.461 195.291,153.461 194.922 C 153.461 194.600,153.310 193.984,153.125 193.555 C 152.913 193.062,152.789 192.990,152.789 193.359 M167.773 195.313 C 167.625 195.988,167.585 196.622,167.685 196.721 C 167.784 196.821,167.978 196.341,168.115 195.654 C 168.441 194.026,168.125 193.710,167.773 195.313 M174.839 197.495 C 174.480 198.926,174.258 200.169,174.346 200.258 C 174.435 200.346,174.801 199.248,175.161 197.817 C 175.520 196.386,175.742 195.143,175.654 195.055 C 175.565 194.966,175.199 196.064,174.839 197.495 M32.281 196.966 C 29.744 198.342,29.267 199.006,30.219 199.836 C 30.570 200.143,30.681 200.182,30.467 199.923 C 29.726 199.028,30.089 198.541,32.422 197.297 C 33.711 196.610,34.766 195.970,34.766 195.876 C 34.766 195.619,34.754 195.625,32.281 196.966 M153.961 197.656 C 153.961 197.979,154.112 198.594,154.297 199.023 C 154.508 199.516,154.633 199.588,154.633 199.219 C 154.633 198.896,154.482 198.281,154.297 197.852 C 154.085 197.359,153.961 197.287,153.961 197.656 M166.992 198.438 C 166.844 199.113,166.804 199.747,166.903 199.846 C 167.003 199.946,167.197 199.466,167.334 198.779 C 167.660 197.151,167.344 196.835,166.992 198.438 M31.445 200.706 C 31.995 201.259,39.463 205.200,39.631 205.026 C 39.707 204.947,37.809 203.855,35.412 202.598 C 33.016 201.341,31.230 200.490,31.445 200.706 M165.570 204.395 C 165.227 205.834,164.798 206.796,164.525 206.738 C 164.271 206.685,164.063 206.816,164.063 207.031 C 164.063 207.246,164.319 207.422,164.633 207.422 C 165.176 207.422,165.665 206.147,166.254 203.201 C 166.703 200.956,166.166 201.893,165.570 204.395 M155.524 203.516 C 155.524 203.838,155.675 204.453,155.859 204.883 C 156.071 205.375,156.195 205.447,156.195 205.078 C 156.195 204.756,156.044 204.141,155.859 203.711 C 155.648 203.219,155.524 203.146,155.524 203.516 M172.689 205.697 C 172.437 206.698,172.304 207.590,172.393 207.680 C 172.483 207.769,172.762 207.023,173.014 206.022 C 173.266 205.021,173.399 204.129,173.310 204.039 C 173.220 203.950,172.941 204.695,172.689 205.697 M22.852 204.890 C 23.281 205.240,23.984 205.699,24.414 205.910 L 25.195 206.293 24.414 205.657 C 23.984 205.307,23.281 204.848,22.852 204.637 L 22.070 204.254 22.852 204.890 M40.234 205.270 C 40.234 205.537,42.626 206.723,42.805 206.544 C 42.890 206.459,42.346 206.098,41.597 205.740 C 40.847 205.383,40.234 205.171,40.234 205.270 M45.626 207.929 L 48.088 209.171 47.970 214.120 C 47.905 216.841,47.983 218.986,48.145 218.886 C 48.306 218.786,48.438 216.520,48.438 213.850 L 48.438 208.996 46.105 207.818 C 44.822 207.170,43.635 206.651,43.468 206.664 C 43.301 206.677,44.272 207.246,45.626 207.929 M27.344 207.597 C 27.344 207.705,27.871 208.065,28.516 208.398 C 29.160 208.732,29.688 208.917,29.688 208.809 C 29.688 208.702,29.160 208.341,28.516 208.008 C 27.871 207.675,27.344 207.490,27.344 207.597 M30.078 209.160 C 30.078 209.267,30.605 209.628,31.250 209.961 C 31.895 210.294,32.422 210.479,32.422 210.372 C 32.422 210.264,31.895 209.904,31.250 209.570 C 30.605 209.237,30.078 209.052,30.078 209.160 M32.813 210.726 C 32.813 210.834,33.516 211.280,34.375 211.719 C 35.234 212.157,35.938 212.428,35.938 212.321 C 35.938 212.213,35.234 211.767,34.375 211.328 C 33.516 210.890,32.813 210.619,32.813 210.726 M157.477 210.938 C 157.477 211.260,157.628 211.875,157.813 212.305 C 158.024 212.797,158.148 212.869,158.148 212.500 C 158.148 212.178,157.997 211.563,157.813 211.133 C 157.601 210.640,157.477 210.568,157.477 210.938 M36.328 212.684 C 36.328 212.791,37.383 213.412,38.672 214.063 C 39.961 214.713,41.016 215.158,41.016 215.050 C 41.016 214.943,39.961 214.323,38.672 213.672 C 37.383 213.021,36.328 212.577,36.328 212.684 M158.638 215.234 C 158.623 215.557,158.943 217.051,159.349 218.555 C 159.754 220.059,160.098 221.025,160.112 220.703 C 160.127 220.381,159.807 218.887,159.401 217.383 C 158.996 215.879,158.652 214.912,158.638 215.234 M41.406 215.418 C 41.406 215.526,42.461 216.146,43.750 216.797 C 45.039 217.448,46.094 217.892,46.094 217.785 C 46.094 217.677,45.039 217.057,43.750 216.406 C 42.461 215.756,41.406 215.311,41.406 215.418 M189.024 219.238 C 188.796 219.813,188.869 221.484,189.123 221.484 C 189.304 221.484,189.453 220.957,189.453 220.313 C 189.453 219.365,189.212 218.763,189.024 219.238 M168.538 221.728 L 168.164 223.242 164.471 223.242 C 160.864 223.242,160.771 223.219,160.506 222.266 C 160.278 221.448,160.228 221.419,160.195 222.090 C 160.125 223.526,160.907 223.828,164.696 223.828 L 168.299 223.828 168.751 222.458 C 169.000 221.704,169.138 220.890,169.058 220.650 C 168.978 220.410,168.744 220.894,168.538 221.728 M250.000 223.047 L 248.242 223.320 250.316 223.379 C 251.613 223.416,252.299 223.291,252.148 223.047 C 252.016 222.832,251.873 222.683,251.832 222.715 C 251.791 222.747,250.967 222.897,250.000 223.047 M140.625 223.535 C 140.625 223.696,142.734 223.828,145.313 223.828 C 147.891 223.828,150.000 223.696,150.000 223.535 C 150.000 223.374,147.891 223.242,145.313 223.242 C 142.734 223.242,140.625 223.374,140.625 223.535 M179.297 223.535 C 179.297 223.696,181.494 223.828,184.180 223.828 C 186.865 223.828,189.063 223.696,189.063 223.535 C 189.063 223.374,186.865 223.242,184.180 223.242 C 181.494 223.242,179.297 223.374,179.297 223.535 M247.403 223.292 C 247.156 223.393,245.838 223.635,244.473 223.829 L 241.992 224.181 244.665 224.047 C 246.135 223.973,247.532 223.718,247.770 223.480 C 248.224 223.026,248.147 222.987,247.403 223.292 M255.572 223.327 C 256.166 223.417,257.044 223.415,257.525 223.322 C 258.005 223.229,257.520 223.156,256.445 223.159 C 255.371 223.162,254.978 223.237,255.572 223.327 M258.594 223.505 C 258.594 223.683,259.121 223.828,259.766 223.828 C 260.410 223.828,260.938 223.760,260.938 223.677 C 260.938 223.594,260.410 223.449,259.766 223.354 C 259.121 223.260,258.594 223.328,258.594 223.505 M318.945 223.861 L 317.383 224.108 319.215 224.163 C 320.223 224.194,321.138 224.072,321.249 223.893 C 321.479 223.521,321.127 223.516,318.945 223.861 M323.350 223.724 C 324.269 223.807,325.675 223.805,326.475 223.721 C 327.275 223.638,326.523 223.570,324.805 223.571 C 323.086 223.573,322.431 223.642,323.350 223.724 M262.109 224.219 C 262.646 224.391,263.438 224.531,263.867 224.531 C 264.486 224.531,264.445 224.466,263.672 224.219 C 263.135 224.047,262.344 223.906,261.914 223.906 C 261.295 223.906,261.336 223.971,262.109 224.219 M329.688 224.219 C 330.225 224.391,331.016 224.531,331.445 224.531 C 332.064 224.531,332.023 224.466,331.250 224.219 C 330.713 224.047,329.922 223.906,329.492 223.906 C 328.874 223.906,328.914 223.971,329.688 224.219 M309.961 225.612 C 306.402 226.882,305.038 227.433,305.158 227.554 C 305.228 227.624,307.040 227.085,309.186 226.357 C 311.331 225.628,312.734 225.038,312.305 225.044 C 311.875 225.050,310.820 225.306,309.961 225.612 M267.969 225.534 C 267.969 225.612,269.067 226.075,270.410 226.561 C 273.894 227.823,277.777 229.825,281.872 232.471 C 283.825 233.733,285.570 234.766,285.750 234.766 C 286.304 234.766,278.873 230.097,275.977 228.625 C 272.486 226.851,267.969 225.107,267.969 225.534 " stroke="none" fill="#c4d4f4" fill-rule="evenodd"></path></g></svg>